<?xml version="1.0" encoding="utf-8"?>
<!-- Generator: Adobe Illustrator 15.0.0, SVG Export Plug-In . SVG Version: 6.00 Build 0)  -->
<!DOCTYPE svg PUBLIC "-//W3C//DTD SVG 1.1//EN" "http://www.w3.org/Graphics/SVG/1.1/DTD/svg11.dtd">
<svg version="1.1" id="Ebene_1" xmlns="http://www.w3.org/2000/svg" xmlns:xlink="http://www.w3.org/1999/xlink" x="0px" y="0px"
	 width="121px" height="50px" viewBox="0 0 121 50" enable-background="new 0 0 121 50" xml:space="preserve">
<rect y="0.135" fill="#FFCC00" width="47.103" height="49.865"/>
<path fill="#FFFFFF" d="M0,45.864V50c9.717-1.398,18.123-16.713,23.519-24.825C18.123,31.939,9.717,44.7,0,45.864"/>
<path fill="#FFFFFF" d="M23.519,25.175C18.122,29.233,9.715,36.881,0,37.577v4.149C9.717,40.795,18.122,30.583,23.519,25.175"/>
<path fill="#FFFFFF" d="M0,33.442c9.716-0.467,18.123-5.564,23.519-8.268C18.123,26.526,9.716,29.075,0,29.309V33.442"/>
<polyline fill="#707173" points="49.937,2.949 49.937,47.166 47.103,50 47.103,0.113 49.937,2.949 "/>
<rect x="60.562" y="2.872" fill="#FFCC00" width="5.25" height="29.902"/>
<polyline fill="#FFCC00" points="88.587,32.774 78.236,12.923 78.236,32.774 72.986,32.774 72.986,2.872 78.636,2.872 
	88.887,22.973 88.887,2.872 94.137,2.872 94.137,32.774 88.587,32.774 "/>
<polyline fill="#FFCC00" points="106.661,7.873 106.661,15.423 119.462,15.423 119.462,20.423 106.661,20.423 106.661,32.774 
	101.411,32.774 101.411,2.872 120.163,2.872 120.163,7.873 106.661,7.873 "/>
<rect x="60.675" y="38.369" fill="#707173" width="1.148" height="8.405"/>
<path fill="#707173" d="M67.817,46.774v-4.328c0-0.029,0-0.127-0.014-0.154c-0.112-0.197-0.406-0.463-0.603-0.574
	c-0.042-0.015-0.084-0.028-0.168-0.028h-0.994c-0.267,0-0.939,0.546-1.079,0.728v4.357h-1.093v-4.917l-0.111-1.12h1.092l0.056,0.49
	c0.281-0.253,0.7-0.561,1.094-0.561h1.05c0.336,0,0.715,0.098,0.967,0.279c0.21,0.154,0.561,0.519,0.672,0.673
	c0.168,0.238,0.225,0.519,0.225,0.798v4.357H67.817"/>
<path fill="#707173" d="M73.441,39.321c-0.056,0-0.168,0-0.21,0.029c-0.154,0.084-0.561,0.434-0.574,0.615c0,0.043,0,0.084,0,0.127
	v0.645h1.078v1.021h-1.078v5.016h-1.093v-5.016H70.57v-1.021h0.994v-0.673c0-0.293,0.056-0.574,0.224-0.813
	c0.112-0.154,0.463-0.519,0.673-0.673c0.267-0.182,0.63-0.279,0.967-0.279h1.064v1.021H73.441"/>
<path fill="#707173" d="M80.474,45.892c-0.112,0.154-0.462,0.518-0.672,0.673c-0.253,0.182-0.631,0.279-0.967,0.279h-1.401
	c-0.336,0-0.714-0.098-0.966-0.279c-0.21-0.155-0.561-0.519-0.673-0.673c-0.168-0.238-0.224-0.519-0.224-0.799v-2.676
	c0-0.279,0.056-0.56,0.224-0.798c0.112-0.154,0.463-0.519,0.673-0.673c0.252-0.182,0.63-0.279,0.966-0.279h1.401
	c0.336,0,0.714,0.098,0.967,0.279c0.21,0.154,0.56,0.519,0.672,0.673c0.168,0.238,0.225,0.519,0.225,0.798v2.676
	C80.698,45.373,80.642,45.653,80.474,45.892 M79.605,45.065v-2.619c0-0.029,0-0.127-0.015-0.154
	c-0.11-0.197-0.406-0.449-0.602-0.561c-0.042-0.014-0.084-0.042-0.168-0.042h-1.359c-0.084,0-0.126,0.028-0.168,0.042
	c-0.196,0.111-0.49,0.363-0.603,0.561c-0.014,0.027-0.027,0.069-0.027,0.154v2.619c0,0.084,0.014,0.14,0.027,0.154
	c0.112,0.195,0.406,0.447,0.603,0.56c0.042,0.015,0.084,0.042,0.168,0.042h1.359c0.084,0,0.126-0.027,0.168-0.042
	c0.153-0.084,0.602-0.435,0.616-0.603C79.605,45.149,79.605,45.106,79.605,45.065z"/>
<path fill="#707173" d="M86.332,42.446c-0.154-0.295-0.504-0.757-0.841-0.757h-0.756c-0.294,0-0.967,0.546-1.106,0.757v4.328h-1.093
	v-4.917l-0.098-1.12h1.092l0.057,0.49c0.279-0.267,0.7-0.561,1.106-0.561h0.771c0.336,0,0.7,0.098,0.952,0.279
	c0.322,0.225,0.771,0.771,0.939,1.178L86.332,42.446"/>
<path fill="#707173" d="M95.984,46.774v-4.328c0-0.085-0.015-0.141-0.028-0.154c-0.112-0.197-0.364-0.449-0.56-0.561
	c-0.043-0.028-0.141-0.042-0.196-0.042h-0.631c-0.266,0-0.91,0.519-1.051,0.7v4.385H92.44v-4.328c0-0.085-0.014-0.141-0.028-0.154
	c-0.112-0.197-0.378-0.463-0.574-0.574c-0.042-0.028-0.14-0.028-0.196-0.028h-0.645c-0.056,0-0.069,0-0.098,0
	c-0.364,0.028-0.841,0.603-0.994,0.784v4.301h-1.094v-4.917l-0.098-1.12h1.093l0.057,0.504c0.279-0.252,0.7-0.574,1.092-0.574
	c0.267,0,0.715,0,0.841,0c0.28-0.014,0.588,0.07,0.826,0.266c0.154,0.126,0.267,0.336,0.421,0.519
	c0.182-0.183,0.56-0.435,0.771-0.574c0.237-0.126,0.49-0.21,0.714-0.21c0.294,0,0.729,0,0.938,0c0.267,0,0.504,0.125,0.715,0.279
	c0.21,0.154,0.56,0.519,0.672,0.673c0.169,0.238,0.225,0.519,0.225,0.798v4.357H95.984"/>
<path fill="#707173" d="M103.014,46.774l-0.056-0.477c-0.28,0.238-0.7,0.546-1.093,0.546h-1.232c-0.336,0-0.7-0.098-0.952-0.279
	c-0.211-0.155-0.547-0.505-0.659-0.659c-0.168-0.225-0.237-0.504-0.237-0.799v-0.266c0-0.294,0.069-0.574,0.237-0.799
	c0.112-0.154,0.448-0.504,0.659-0.658c0.252-0.182,0.616-0.28,0.952-0.28h2.27v-0.672c0-0.028,0-0.112-0.015-0.14
	c-0.111-0.197-0.406-0.449-0.602-0.561c-0.043-0.014-0.085-0.042-0.169-0.042h-1.316c-0.252,0-0.504,0.308-0.645,0.49
	c-0.069,0.084-0.182,0.237-0.182,0.237l-1.022-0.308c0.168-0.406,0.63-0.966,0.924-1.177c0.267-0.182,0.631-0.266,0.967-0.266h1.289
	c0.336,0,0.714,0.098,0.966,0.279c0.211,0.154,0.561,0.505,0.674,0.657c0.167,0.239,0.223,0.534,0.223,0.813v3.25l0.112,1.107
	H103.014 M102.902,44.112h-2.256c-0.083,0-0.125,0.014-0.168,0.028c-0.196,0.112-0.462,0.378-0.574,0.574
	c-0.014,0.014-0.028,0.057-0.028,0.141v0.237c0,0.084,0.015,0.127,0.028,0.141c0.112,0.195,0.378,0.434,0.574,0.546
	c0.043,0.015,0.085,0.042,0.168,0.042h1.177c0.057,0,0.099-0.014,0.126-0.027c0.239-0.113,0.757-0.421,0.953-0.701V44.112z"/>
<path fill="#707173" d="M107.658,41.759v3.208c0,0.099,0.014,0.169,0.028,0.183c0.111,0.195,0.364,0.447,0.56,0.561
	c0.028,0.014,0.112,0.041,0.196,0.041h1.051v1.023h-1.064c-0.336,0-0.7-0.099-0.953-0.281c-0.21-0.153-0.56-0.531-0.672-0.686
	c-0.168-0.238-0.238-0.519-0.238-0.813v-3.236h-0.994v-1.021h0.994v-2.368h1.093v2.368h1.849v1.021H107.658"/>
<path fill="#707173" d="M111.133,38.3h1.205v1.19h-1.205V38.3z M111.189,40.737h1.093v6.037h-1.093V40.737z"/>
<polyline fill="#707173" points="117.945,46.774 115.34,44.099 115.298,44.099 115.298,46.774 114.205,46.774 114.205,38.369 
	115.298,38.369 115.298,43.076 115.326,43.076 117.693,40.737 119.191,40.737 116.334,43.566 119.486,46.774 117.945,46.774 "/>
<path d="M47.103,4.37V0.233c-9.718,1.398-18.124,16.714-23.519,24.826C28.979,18.296,37.386,5.534,47.103,4.37"/>
<path d="M23.584,25.059C28.98,21,37.388,13.353,47.103,12.657V8.508C37.386,9.439,28.98,19.651,23.584,25.059"/>
<path d="M47.103,16.792c-9.717,0.466-18.123,5.565-23.519,8.267c5.396-1.351,13.802-3.899,23.519-4.134V16.792"/>
</svg>
